#!OML:ASF Y:\EmotionMaleHayes\Project 1\Capture day 1\Session 1\Male1.ASF
:FULLY-SPECIFIED
:DEGREES
244
root -27.6488 16.967 3.00118 130.176 85.5431 133.603
lowerback 5.64598 0.176882 0.461041
upperback 2.07632 0.308205 0.477176
thorax -1.0303 0.171552 0.210913
lowerneck -22.9399 2.45852 4.84052
upperneck 30.0999 3.20442 -3.05962
head 14.3065 1.67046 -1.42251
rclavicle -4.62174e-015 3.18055e-015
rhumerus 17.998 31.1951 -52.127
rradius 40.725
rwrist -3.4548
rhand -2.65368 -34.7763
rfingers 7.12502
rthumb 23.0463 -63.4183
lclavicle -4.62174e-015 3.18055e-015
lhumerus 21.9386 -30.8178 44.7907
lradius 42.2972
lwrist 4.33159
lhand -9.25547 -23.8198
lfingers 7.12502
lthumb 16.7005 5.48183
rfemur 14.9166 -6.84819 15.8574
rtibia 5.65563
rfoot -21.3258 -4.63779
rtoes 12.7085
lfemur 3.68625 3.09131 -10.1667
ltibia 20.0214
lfoot -15.0656 3.11761
ltoes -7.80289
245
root -27.6285 16.9701 2.99149 128.207 85.5804 131.684
lowerback 5.712 0.211119 0.420318
upperback 2.11454 0.35292 0.473622
thorax -1.02802 0.194295 0.227042
lowerneck -23.0839 2.53798 5.02018
upperneck 30.0814 3.27846 -3.18527
head 14.34 1.70126 -1.48974
rclavicle -8.34896e-015 -2.70347e-014
rhumerus 18.6168 31.1481 -51.6584
rradius 40.6058
rwrist -3.47283
rhand -2.49096 -34.6446
rfingers 7.12502
rthumb 23.2024 -63.267
lclavicle -8.34896e-015 -2.70347e-014
lhumerus 22.3572 -30.6378 44.4368
lradius 42.2528
lwrist 4.23409
lhand -9.18195 -23.8895
lfingers 7.12502
lthumb 16.7713 5.40612
rfemur 14.9937 -6.65839 15.7931
rtibia 5.71244
rfoot -21.3923 -4.74559
rtoes 12.3617
lfemur 3.70353 3.13926 -10.1378
ltibia 19.6645
lfoot -14.9321 3.31776
ltoes -6.75942
246
root -27.6046 16.9706 2.97931 124.743 85.5054 128.317
lowerback 5.77528 0.281905 0.298809
upperback 2.17794 0.440202 0.356531
thorax -0.998169 0.238482 0.169243
lowerneck -23.0489 2.4392 5.04616
upperneck 30.0735 3.12548 -3.18794
head 14.3212 1.63901 -1.52462
rclavicle 1.14798e-014 -5.56597e-015
rhumerus 19.0411 30.9043 -51.4542
rradius 40.5852
rwrist -3.37175
rhand -2.39923 -34.5596
rfingers 7.12502
rthumb 23.2904 -63.1709
lclavicle 1.14798e-014 -5.56597e-015
lhumerus 22.8234 -30.5397 43.9359
lradius 42.3353
lwrist 4.17418
lhand -8.99941 -23.7742
lfingers 7.12502
lthumb 16.947 5.50648
rfemur 15.1713 -6.60621 15.427
rtibia 5.74611
rfoot -21.4654 -4.58661
rtoes 12.1942
lfemur 3.81647 3.27871 -10.2976
ltibia 19.2319
lfoot -14.6661 3.60922
ltoes -8.02967
247
root -27.582 16.9696 2.96752 122.051 85.4184 125.61
lowerback 5.78217 0.360709 0.146091
upperback 2.14617 0.534631 0.277953
thorax -1.03531 0.284899 0.167921
lowerneck -23.0165 2.35395 5.09632
upperneck 30.1583 3.0057 -3.2313
head 14.3468 1.59064 -1.57433
rclavicle 1.63997e-015 3.97569e-015
rhumerus 19.326 30.8245 -51.1625
rradius 40.7334
rwrist -3.56065
rhand -2.57713 -34.5187
rfingers 7.12502
rthumb 23.1197 -63.1515
lclavicle 1.63997e-015 3.97569e-015
lhumerus 23.1459 -30.602 43.4648
lradius 42.5425
lwrist 4.46638
lhand -8.78278 -23.7307
lfingers 7.12502
lthumb 17.1555 5.53196
rfemur 15.2672 -6.56981 15.1133
rtibia 5.71363
rfoot -21.4868 -4.43723
rtoes 12.2127
lfemur 3.69682 3.47412 -10.3812
ltibia 19.053
lfoot -14.5389 3.64761
ltoes -8.28775
248
root -27.5635 16.9675 2.95855 121.492 85.5467 124.943
lowerback 5.77648 0.383615 0.166207
upperback 2.04759 0.565144 0.341256
thorax -1.13392 0.298976 0.219161
lowerneck -22.9309 2.41714 5.10155
upperneck 30.1747 3.09088 -3.18923
head 14.3396 1.63605 -1.54206
rclavicle -6.5102e-015 2.38542e-015
rhumerus 19.7518 31.0215 -50.6865
rradius 40.8747
rwrist -3.87449
rhand -2.73542 -34.1504
rfingers 7.12502
rthumb 22.9679 -62.8021
lclavicle -6.5102e-015 2.38542e-015
lhumerus 23.2862 -30.6275 43.1059
lradius 42.6986
lwrist 4.72253
lhand -8.6136 -23.7348
lfingers 7.12502
lthumb 17.3184 5.51363
rfemur 15.1971 -6.31067 15.2977
rtibia 5.74036
rfoot -21.5396 -4.66966
rtoes 12.7909
lfemur 3.40317 3.49773 -10.1326
ltibia 18.9583
lfoot -14.578 3.58405
ltoes -6.07095
249
root -27.5396 16.9702 2.95195 121.26 85.6691 124.801
lowerback 5.88445 0.35769 0.197093
upperback 2.077 0.535499 0.426104
thorax -1.16423 0.284657 0.290217
lowerneck -22.9924 2.49852 5.07025
upperneck 30.2225 3.23406 -3.223
head 14.3819 1.68847 -1.52325
rclavicle 1.0138e-014 1.19271e-014
rhumerus 20.3528 30.9837 -50.3185
rradius 40.8752
rwrist -3.84233
rhand -2.41305 -33.7563
rfingers 7.12502
rthumb 23.2772 -62.3692
lclavicle 1.0138e-014 1.19271e-014
lhumerus 23.4346 -30.3885 42.8962
lradius 42.7005
lwrist 4.58597
lhand -8.54434 -23.6609
lfingers 7.12502
lthumb 17.385 5.58165
rfemur 15.3756 -5.97211 15.5393
rtibia 5.77676
rfoot -21.7067 -5.00802
rtoes 13.1019
lfemur 3.44442 3.39767 -9.87718
ltibia 18.5452
lfoot -14.4526 3.68807
ltoes -6.53676
250
root -27.5128 16.9693 2.93862 120.1 85.5746 123.617
lowerback 5.78449 0.333969 0.143514
upperback 2.15647 0.500749 0.380974
thorax -1.0269 0.26784 0.277345
lowerneck -23.1739 2.53166 5.12655
upperneck 30.2046 3.29711 -3.37825
head 14.4213 1.6949 -1.58374
rclavicle -1.73937e-015 -1.59028e-014
rhumerus 20.9607 30.6325 -50.0893
rradius 40.854
rwrist -3.62798
rhand -1.88648 -33.6916
rfingers 7.12502
rthumb 23.7823 -62.2398
lclavicle -1.73937e-015 -1.59028e-014
lhumerus 23.7872 -30.1208 42.5208
lradius 42.7199
lwrist 4.55133
lhand -8.63477 -23.6148
lfingers 7.12502
lthumb 17.298 5.63535
rfemur 15.4368 -5.77288 15.4204
rtibia 5.83912
rfoot -21.8446 -5.1856
rtoes 11.4556
lfemur 3.36932 3.45054 -9.92235
ltibia 18.0663
lfoot -14.2702 3.90593
ltoes -9.3605
